D:\school\WTK\thesis\model\3dpredictsim\Results\Batchsim_tmt_linear_v2\Pog_s1_tmt_bCst_d00_k800_ig24_pas_GRF.mot
nRows=15
nColumns=19

name D:\school\WTK\thesis\model\3dpredictsim\Results\Batchsim_tmt_linear_v2\Pog_s1_tmt_bCst_d00_k800_ig24_pas_GRF.mot
datacolumns 19
datarows 15
range 0.5461065667 0.6990164054
endheader
time 	ground_force_vx	ground_force_vy	ground_force_vz	ground_force_px	ground_force_py	ground_force_pz	1_ground_force_vx	1_ground_force_vy	1_ground_force_vz	1_ground_force_px	1_ground_force_py	1_ground_force_pz	ground_torque_x	ground_torque_y	ground_torque_z	1_ground_torque_x	1_ground_torque_y	1_ground_torque_z
        0.5461065667	       96.2394909312	      409.0097978806	       -1.6032679684	        0.3301896273	        0.0000000000	        0.0444168473	      -82.0174760345	       63.6529654577	      -19.1774968196	        0.8399856949	        0.0000000000	       -0.0461611258	        0.0000000000	        0.0000000000	        0.0000000000	        0.0000000000	        0.0000000000	        0.0000000000	
        0.5570286981	       57.4374202697	      300.2764876843	        4.6738096830	        0.3498220722	        0.0000000000	        0.0405499946	     -146.7639717735	      149.5439786941	      -48.5218034395	        0.8479853898	        0.0000000000	       -0.0445570546	        0.0000000000	        0.0000000000	        0.0000000000	        0.0000000000	        0.0000000000	        0.0000000000	
        0.5679508294	       22.3609176923	      200.4987507992	        9.4281598289	        0.3799576364	        0.0000000000	        0.0335217286	      -69.9719685558	      319.1202166581	      -18.1133779545	        0.8548275959	        0.0000000000	       -0.0430963943	        0.0000000000	        0.0000000000	        0.0000000000	        0.0000000000	        0.0000000000	        0.0000000000	
        0.5788729608	        2.3419056115	      146.8347829573	       11.4237834764	        0.4015927290	        0.0000000000	        0.0264426947	      -72.1996009548	      540.5423979515	        2.3568767125	        0.8612108557	        0.0000000000	       -0.0441043612	        0.0000000000	        0.0000000000	        0.0000000000	        0.0000000000	        0.0000000000	        0.0000000000	
        0.5897950921	       -0.0834210250	      115.9167904020	       11.0872085022	        0.4014271148	        0.0000000000	        0.0267352652	     -116.9373917281	      806.8747974130	       14.8175613006	        0.8710906931	        0.0000000000	       -0.0468450899	        0.0000000000	        0.0000000000	        0.0000000000	        0.0000000000	        0.0000000000	        0.0000000000	
        0.6007172234	       -3.2520117712	       76.5614737098	       10.3448913398	        0.4018748830	        0.0000000000	        0.0268338285	     -140.8512181327	      961.0086920057	       21.0088245747	        0.8776089397	        0.0000000000	       -0.0485296902	        0.0000000000	        0.0000000000	        0.0000000000	        0.0000000000	        0.0000000000	        0.0000000000	
        0.6116393548	       -8.3617190422	       32.2757211729	        6.2120186653	        0.4015432170	        0.0000000000	        0.0268347780	     -142.7058283049	      985.8457905158	       21.8162861595	        0.8820456277	        0.0000000000	       -0.0495626123	        0.0000000000	        0.0000000000	        0.0000000000	        0.0000000000	        0.0000000000	        0.0000000000	
        0.6225614861	        0.1675768489	       -0.1706653586	       -0.0138938567	        0.0000000000	        0.0000000000	        0.0000000000	     -129.0687565271	      942.0899310221	       21.3695983498	        0.8857391638	        0.0000000000	       -0.0502705601	        0.0000000000	        0.0000000000	        0.0000000000	        0.0000000000	        0.0000000000	        0.0000000000	
        0.6334836174	        0.0002602149	       -0.0002182719	        0.0000041651	        0.0000000000	        0.0000000000	        0.0000000000	     -111.5030500300	      876.3078562800	       19.6769827275	        0.8895926665	        0.0000000000	       -0.0508455499	        0.0000000000	        0.0000000000	        0.0000000000	        0.0000000000	        0.0000000000	        0.0000000000	
        0.6444057488	        0.0001122879	       -0.0000821799	        0.0000041223	        0.0000000000	        0.0000000000	        0.0000000000	      -99.3441626789	      823.7666332890	       19.2816598558	        0.8944178326	        0.0000000000	       -0.0515122971	        0.0000000000	        0.0000000000	        0.0000000000	        0.0000000000	        0.0000000000	        0.0000000000	
        0.6553278801	        0.0009486061	       -0.0006222893	        0.0000431138	        0.0000000000	        0.0000000000	        0.0000000000	      -91.1849938531	      786.5272938548	       18.4912960946	        0.9003901600	        0.0000000000	       -0.0517413591	        0.0000000000	        0.0000000000	        0.0000000000	        0.0000000000	        0.0000000000	        0.0000000000	
        0.6662500114	        0.0095682799	       -0.0057472637	        0.0004751430	        0.0000000000	        0.0000000000	        0.0000000000	      -81.7167008896	      746.0771047676	       18.0385534815	        0.9062540834	        0.0000000000	       -0.0518030139	        0.0000000000	        0.0000000000	        0.0000000000	        0.0000000000	        0.0000000000	        0.0000000000	
        0.6771721428	       -0.0556628159	        0.0311301601	       -0.0029006711	        0.0000000000	        0.0000000000	        0.0000000000	      -73.3289761187	      707.7634459352	       17.5436452698	        0.9118825397	        0.0000000000	       -0.0517396850	        0.0000000000	        0.0000000000	        0.0000000000	        0.0000000000	        0.0000000000	        0.0000000000	
        0.6880942741	       -0.0382448071	        0.0201461214	       -0.0020584918	        0.0000000000	        0.0000000000	        0.0000000000	      -65.1366652836	      676.7055630581	       17.2843688548	        0.9173712642	        0.0000000000	       -0.0515959143	        0.0000000000	        0.0000000000	        0.0000000000	        0.0000000000	        0.0000000000	        0.0000000000	
        0.6990164054	       -0.0257256605	        0.0128665611	       -0.0014172576	        0.0000000000	        0.0000000000	        0.0000000000	      -57.3263516262	      652.6911451170	       17.2996627780	        0.9226954763	        0.0000000000	       -0.0514525331	        0.0000000000	        0.0000000000	        0.0000000000	        0.0000000000	        0.0000000000	        0.0000000000	
